<svg xmlns="http://www.w3.org/2000/svg" viewBox="0 0 24 24">
  <path d="M15 0L15 3L12.5 8L5.4003906 8L3.4003906 6L2 7.4003906L4 9.4003906L4 11L4 13L3 15L2 21L4.25 21L5 17L7 15L13.556641 15L15.849609 21L17.990234 21L16.5 15.814453L16.5 15L18 12L18 7L18.757812 7C19.553812 7 20.316906 6.6840938 20.878906 6.1210938L22 5L22 3.5C22 3.224 21.776 3 21.5 3L20 3L19.292969 2.2929688C19.104969 2.1049687 18.850938 2 18.585938 2L17.5 2L16.599609 0.80078125C16.221609 0.29678125 15.63 1.4802974e-16 15 0 z M 7.828125 17L7.4355469 17.392578L8.75 21L11 21L9.6347656 17L7.828125 17 z" />
</svg>