<?xml version="1.0" encoding="utf-8"?>
<svg xmlns="http://www.w3.org/2000/svg" viewBox="0 0 24 24" width="96" height="96">
  <path d="M11.46875 1C9.7244854 1 8.3248014 2.3225079 8.0703125 4L6.96875 4C4.1561586 4 1.96875 6.602 1.96875 10C1.96875 12.416667 3.4174377 14.36275 4.7617188 15.707031C5.3562244 16.301537 5.9332586 16.770044 6.4121094 17.130859C6.121805 17.717573 5.96875 18.358905 5.96875 19C5.96875 19.972222 6.2874306 20.957881 6.9707031 21.726562C7.6539756 22.495244 8.7187503 23 9.96875 23C11.21875 23 12.281571 22.495244 12.964844 21.726562C13.648116 20.957881 13.96875 19.972222 13.96875 19C13.96875 18.329175 13.803473 17.656757 13.484375 17.048828C15.044451 15.732225 16.122934 14.446458 16.800781 13.429688C17.243915 12.764987 17.239773 12.650215 17.414062 12.269531C17.728927 12.351111 18.082289 12.408011 18.289062 12.558594C18.617241 12.797588 18.865227 13.114068 19.025391 13.769531C19.185554 14.424995 19.218031 15.422287 18.982422 16.835938L19.96875 17L20.949219 17.195312C20.949219 17.195312 21.96875 12.166667 21.96875 8C21.96875 5.3438 21.340243 3.5679211 20.330078 2.453125C19.319914 1.3383289 17.998417 1 16.96875 1C15.939083 1 14.928207 1.3152747 14.169922 2.0136719C14.12338 2.0565378 14.089058 2.1126295 14.044922 2.1582031C13.402975 1.4531425 12.48878 1 11.46875 1 z M 11.46875 3C12.309562 3 12.96875 3.6591883 12.96875 4.5L12.96875 5L14.96875 5C14.96875 4.2238333 15.195971 3.7879309 15.523438 3.4863281C15.850903 3.1847253 16.341417 3 16.96875 3C17.596083 3 18.272071 3.1616711 18.847656 3.796875C19.423242 4.4320789 19.96875 5.6562 19.96875 8C19.96875 9.0365419 19.893671 10.142438 19.789062 11.224609C19.683966 11.126419 19.580578 11.024267 19.466797 10.941406C18.063405 9.9193948 16.34925 10 14.96875 10L13.96875 10C12.024327 10 9.96875 8.310285 9.96875 6.5L9.96875 6L9.96875 4.5C9.96875 3.6591883 10.627938 3 11.46875 3 z M 6.96875 6L7.96875 6L7.96875 6.5C7.96875 9.659715 10.943173 12 13.96875 12L14.96875 12C15.087406 12 15.183877 12.016188 15.300781 12.017578C15.204941 12.178743 15.265051 12.127807 15.136719 12.320312C14.542667 13.21139 13.564503 14.378197 12.107422 15.591797C11.764964 15.385957 11.387223 15.221158 10.96875 15.123047L10.96875 13L8.96875 13L8.96875 15.123047C8.5162991 15.228861 8.1089818 15.408262 7.7460938 15.638672C7.3154348 15.32107 6.747632 14.864819 6.1757812 14.292969C5.0200622 13.13725 3.96875 11.583333 3.96875 10C3.96875 7.398 5.3633414 6 6.96875 6 z M 16.96875 6 A 1 1 0 0 0 16.96875 8 A 1 1 0 0 0 16.96875 6 z M 9.96875 17C10.718749 17 11.153976 17.245244 11.470703 17.601562C11.78743 17.957881 11.96875 18.472222 11.96875 19C11.96875 19.527778 11.78743 20.042119 11.470703 20.398438C11.153976 20.754756 10.718749 21 9.96875 21C9.2187505 21 8.7815708 20.754756 8.4648438 20.398438C8.1481166 20.042119 7.96875 19.527778 7.96875 19C7.96875 18.472222 8.1481166 17.957881 8.4648438 17.601562C8.7815708 17.245244 9.2187505 17 9.96875 17 z" />
</svg>